<svg version="1.1" id="Capa_1" xmlns="http://www.w3.org/2000/svg" x="0" y="0" viewBox="0 0 456.51 456.51" style="enable-background:new 0 0 456.51 456.51" xml:space="preserve"><path d="M319.349 389.262H137.161c-50.469 0-102.489-41.354-115.962-92.186L4.413 231.455A97.021 97.021 0 0 1 0 202.451c0-53.653 43.648-97.303 97.299-97.303h53.816c5.522 0 10 4.478 10 10s-4.478 10-10 10H97.299C54.676 125.149 20 159.825 20 202.45c0 7.725 1.14 15.19 3.258 22.233.135.354.251.72.348 1.095l.036.144c9.959 31.186 39.214 53.832 73.657 53.832H359.21c34.441 0 63.695-22.645 73.656-53.826l.038-.149c.097-.377.214-.744.35-1.1a77.092 77.092 0 0 0 3.256-22.227c0-42.625-34.677-77.303-77.3-77.303h-74.882c-5.522 0-10-4.478-10-10s4.478-10 10-10h74.882c53.651 0 97.3 43.649 97.3 97.301a96.942 96.942 0 0 1-4.411 28.997l-16.766 65.546c-13.495 50.915-65.516 92.269-115.984 92.269zm-282.15-110.34 3.354 13.113c11.085 41.823 55.336 77.227 96.607 77.227h182.188c41.271 0 85.522-35.403 96.63-77.311l3.333-13.03c-16.558 13.042-37.438 20.832-60.102 20.832H97.299c-22.663 0-43.542-7.789-60.1-20.831zm180.312-21.854c-9.89.001-19.851-3.998-27.085-10.969-4.011-3.866-9.69-6.031-14.839-5.667-3.697.267-6.623 1.753-8.696 4.416l-.016.021c-5.53 7.126-13.775 11.425-23.216 12.105-10.714.775-21.819-3.292-29.688-10.875-4.011-3.867-9.693-6.031-14.838-5.667-3.706.267-6.638 1.759-8.712 4.434-3.385 4.366-9.666 5.159-14.03 1.774s-5.159-9.666-1.774-14.03c5.542-7.146 13.738-11.453 23.078-12.126 10.816-.78 22.066 3.415 30.156 11.216 3.788 3.65 9.291 5.697 14.369 5.326 2.621-.188 6.285-1.108 8.854-4.419a.394.394 0 0 1 .024-.03c5.541-7.125 13.725-11.42 23.048-12.093 10.783-.781 22.064 3.412 30.159 11.214 3.791 3.653 9.303 5.696 14.371 5.328 2.62-.188 6.281-1.108 8.848-4.417.008-.011.017-.021.024-.032 5.542-7.127 13.728-11.421 23.054-12.093 10.781-.781 22.065 3.414 30.158 11.215 3.976 3.833 4.092 10.163.259 14.14-3.833 3.976-10.164 4.092-14.14.259-4.01-3.866-9.688-6.031-14.839-5.665-3.699.267-6.627 1.753-8.701 4.419l-.013.016c-5.527 7.126-13.771 11.426-23.21 12.107-.865.061-1.736.093-2.605.093zm.166-43.105c-9.89 0-19.852-3.998-27.085-10.969-4.011-3.867-9.698-6.034-14.838-5.667-3.706.267-6.638 1.759-8.712 4.434-3.385 4.366-9.666 5.159-14.03 1.774s-5.159-9.666-1.774-14.03c5.542-7.146 13.738-11.453 23.078-12.126 10.807-.774 22.066 3.414 30.156 11.216 3.788 3.65 9.285 5.685 14.369 5.327 2.62-.189 6.281-1.108 8.85-4.415l.002-.002c5.541-7.146 13.736-11.452 23.074-12.126 10.793-.777 22.065 3.413 30.159 11.214 3.79 3.652 9.31 5.701 14.371 5.328 2.62-.188 6.281-1.108 8.848-4.417.008-.011.017-.021.024-.032 5.542-7.127 13.728-11.421 23.054-12.093 10.785-.775 22.065 3.413 30.158 11.215 3.976 3.833 4.092 10.163.259 14.14-3.833 3.976-10.164 4.093-14.14.259-4.01-3.865-9.681-6.036-14.839-5.665-3.699.267-6.627 1.753-8.701 4.419l-.013.016c-5.527 7.126-13.771 11.426-23.21 12.107-10.724.771-21.821-3.292-29.69-10.875-4.013-3.867-9.704-6.034-14.84-5.667-3.697.267-6.623 1.753-8.696 4.416l-.016.021c-5.53 7.126-13.775 11.426-23.216 12.106-.865.061-1.734.092-2.602.092zm15.19-50.917a9.969 9.969 0 0 1-7.052-2.909c-3.916-3.895-3.934-10.227-.039-14.143 6.35-6.385 5.951-22.123-.79-31.185l-.021-.027c-8.044-10.833-11.409-26.383-8.574-39.626 1.156-5.399 6.467-8.843 11.872-7.685 5.4 1.156 8.841 6.472 7.685 11.872-1.658 7.746.38 17.191 5.073 23.513l.012.016c11.301 15.191 13.639 42.43-1.075 57.226a9.968 9.968 0 0 1-7.091 2.948zm-40.785-.003a9.97 9.97 0 0 1-7.052-2.91c-3.916-3.895-3.933-10.227-.038-14.142 6.346-6.38 5.949-22.101-.781-31.165l-.015-.019c-8.056-10.836-11.428-26.4-8.591-39.651 1.156-5.399 6.467-8.843 11.872-7.685 5.4 1.156 8.841 6.472 7.685 11.872-1.658 7.744.38 17.189 5.07 23.512l.012.016c11.304 15.191 13.644 42.43-1.072 57.224a9.97 9.97 0 0 1-7.09 2.948z"/></svg>